<svg version="1.1" xmlns="http://www.w3.org/2000/svg" xmlns:xlink="http://www.w3.org/1999/xlink" width="512.000000pt" height="512.000000pt" viewBox="0,0,256,256"><g fill="#ffffff" fill-rule="nonzero" stroke="none" stroke-width="1" stroke-linecap="butt" stroke-linejoin="miter" stroke-miterlimit="10" stroke-dasharray="" stroke-dashoffset="0" font-family="none" font-weight="none" font-size="none" text-anchor="none" style="mix-blend-mode: normal"><g transform="translate(-0.00962,-0.15584) scale(0.5,0.5)"><g transform="translate(0,512) scale(0.1,-0.1)"><path d="M2438,4470c-166,-30 -312,-111 -425,-235c-75,-81 -118,-154 -156,-262c-29,-82 -31,-97 -32,-228c0,-119 3,-151 23,-215c33,-102 71,-175 134,-253c222,-276 593,-355 918,-195c70,34 102,58 181,137c78,79 103,111 137,181c53,108 72,181 79,300c25,411 -294,761 -706,775c-58,2 -127,0 -153,-5z"></path><path d="M1955,2775c-266,-60 -466,-223 -558,-455c-27,-70 -47,-162 -47,-221v-38l58,-11c91,-18 290,-75 398,-115c261,-97 543,-263 710,-417l44,-41l44,41c62,58 191,151 299,218c215,134 508,248 791,310l79,17l-7,67c-23,252 -191,483 -430,590c-144,65 -136,64 -756,67c-448,1 -577,-1 -625,-12z"></path><path d="M795,2013c3,-10 81,-198 173,-419l166,-401l106,-6c389,-23 804,-189 1174,-467l106,-80v380v379l-62,56c-242,216 -590,392 -959,485c-192,49 -491,90 -658,90c-46,0 -52,-2 -46,-17z"></path><path d="M4085,2019c-560,-49 -1104,-268 -1437,-578l-48,-44v-379v-380l63,50c363,288 820,475 1217,499l106,6l167,404c93,222 170,410 174,418c6,17 -72,18 -242,4z"></path></g></g></g></svg>